<?xml version="1.0" encoding="utf-8"?>
<!-- Generator: Adobe Illustrator 16.0.0, SVG Export Plug-In . SVG Version: 6.00 Build 0)  -->
<!DOCTYPE svg PUBLIC "-//W3C//DTD SVG 1.1//EN" "http://www.w3.org/Graphics/SVG/1.1/DTD/svg11.dtd">
<svg version="1.1" id="Layer_1" xmlns="http://www.w3.org/2000/svg" xmlns:xlink="http://www.w3.org/1999/xlink" x="0px" y="0px"
	 width="144px" height="32px" viewBox="0 0 144 32" enable-background="new 0 0 144 32" xml:space="preserve">
<g>
	<path fill="#80122F" d="M17.792,24.602c0.383,0.514,0.83,0.881,1.353,1.147c1.589,0.812,3.28,1.012,5.035,0.797
		c0.636-0.073,1.273-0.146,1.968-0.226c-0.344,0.548-2.271,3.607-2.901,4.634c-0.196,0.317-0.436,0.479-0.827,0.448
		c-0.442-0.032-0.891-0.012-1.336-0.004c-2.169,0.023-4.201-0.489-6.131-1.479c-0.971-0.496-1.855-1.114-2.611-1.875
		c-0.882-0.896-1.635-1.905-2.089-3.104c-0.114-0.297-0.294-0.477-0.653-0.562c-1.666-0.403-3.21-1.11-4.571-2.151
		c-2.31-1.761-3.76-4.086-4.233-6.961c-0.175-1.061-0.279-2.153-0.231-3.223c0.115-2.528,0.846-4.86,2.491-6.851
		C4.43,3.526,6.134,2.354,8.159,1.609c1.359-0.501,2.747-0.827,4.19-0.939c1.471-0.115,2.935-0.111,4.406,0.072
		c1.663,0.207,3.243,0.675,4.749,1.391c1.363,0.646,2.54,1.557,3.564,2.669c1.12,1.215,1.88,2.628,2.346,4.2
		c0.298,1.011,0.429,2.046,0.488,3.103c0.125,2.155-0.255,4.196-1.188,6.135c-0.447,0.926-1.045,1.75-1.735,2.52
		c-1.733,1.932-3.925,3.047-6.396,3.693C18.349,24.514,18.102,24.542,17.792,24.602z M14.232,19.624
		c0.741-0.104,1.5-0.147,2.222-0.332c1.909-0.479,3.372-1.582,4.283-3.339c0.709-1.37,0.86-2.84,0.645-4.36
		c-0.324-2.29-1.511-3.972-3.567-5.002c-1.204-0.605-2.511-0.788-3.868-0.759c-1.275,0.029-2.479,0.275-3.588,0.885
		c-1.262,0.695-2.21,1.687-2.787,3.034c-0.647,1.508-0.764,3.062-0.431,4.645c0.33,1.558,1.153,2.825,2.434,3.779
		C10.95,19.2,12.524,19.585,14.232,19.624z"/>
	<path fill="#80122F" d="M36.38,6.958c0,0.255,0.008,10.147-0.007,14.838c-0.002,1.076,0.15,1.119,1.164,1.328
		c0,0.196,0,0.399,0,0.627c-2.473,0-4.93,0-7.408,0c0-0.209,0-0.399,0-0.604c0.262-0.08,0.56-0.109,0.791-0.252
		c0.168-0.104,0.276-0.336,0.36-0.533c0.052-0.121,0.008-12.798,0.008-18.983c0-0.9-0.068-0.982-0.952-1.149
		c-0.062-0.012-0.124-0.016-0.206-0.024c0-0.183,0-0.35,0-0.565c0.121-0.008,0.245-0.021,0.37-0.021
		c2.909,0,5.818,0.004,8.727-0.007c0.284-0.001,0.38,0.098,0.487,0.356c0.529,1.28,4.067,9.324,4.285,9.792
		c0.14-0.26,3.925-8.119,4.737-9.829c0.087-0.183,0.167-0.319,0.42-0.319c3.107,0.011,6.213,0.007,9.317,0.01
		c0.062,0,0.126,0.011,0.211,0.02c0,0.193,0,0.37,0,0.549c-0.162,0.039-0.31,0.077-0.459,0.112
		c-0.519,0.125-0.697,0.345-0.697,0.864c0,3.866,0,7.731,0,11.597c0,2.41,0,4.822,0,7.234c0,0.793,0.058,0.871,0.821,1.059
		c0.1,0.023,0.205,0.031,0.335,0.049c0,0.203,0,0.406,0,0.64c-2.825,0-5.648,0-8.499,0c0-0.205,0-0.408,0-0.627
		c0.189-0.039,0.38-0.063,0.562-0.117c0.361-0.106,0.586-0.334,0.586-0.729c-0.001-5.06-0.002-10.119-0.004-15.175
		c0-0.013-0.007-0.027-0.047-0.144c-2.5,5.462-4.97,10.85-7.48,16.327c-2.466-5.498-4.897-10.918-7.328-16.338
		C36.442,6.945,36.412,6.952,36.38,6.958z"/>
	<path fill="#80122F" d="M143.13,3.552c-1.144,2.099-2.272,4.176-3.399,6.244c-0.582-0.08-0.596-0.102-0.502-0.64
		c0.066-0.403-0.151-0.663-0.463-0.874c-0.867-0.577-1.857-0.833-2.849-0.99c-1.239-0.198-2.504-0.328-3.757-0.322
		c-1.82,0.008-3.581,0.414-5.143,1.406c-1.349,0.858-2.168,2.077-2.355,3.708c-0.162,1.422,0.166,2.693,1.023,3.828
		c0.646,0.855,1.535,1.395,2.491,1.798c1.584,0.674,3.271,0.84,4.968,0.717c2.605-0.188,5.055-0.946,7.312-2.282
		c0.032-0.019,0.069-0.035,0.131-0.067c0.419,0.713,2.272,3.878,2.79,4.746c0.104,0.172,0.105,0.258-0.086,0.365
		c-1.227,0.699-2.504,1.291-3.85,1.727c-1.471,0.477-2.959,0.877-4.5,1.018c-0.994,0.09-1.996,0.234-2.99,0.217
		c-2.967-0.049-5.829-0.61-8.45-2.071c-2.006-1.119-3.601-2.666-4.594-4.767c-0.521-1.097-0.796-2.258-0.913-3.476
		c-0.18-1.797,0.053-3.519,0.725-5.186c0.413-1.029,1.014-1.949,1.75-2.776c1.7-1.909,3.864-3.082,6.271-3.816
		c1.221-0.373,2.474-0.645,3.766-0.677c0.965-0.022,1.932-0.108,2.895-0.066c2.178,0.091,4.344,0.299,6.432,0.976
		c0.945,0.307,1.88,0.661,2.812,1.002C142.8,3.349,142.938,3.447,143.13,3.552z"/>
	<path fill="#80122F" d="M86.209,23.102c0,0.239,0,0.432,0,0.649c-2.761,0-5.506,0-8.275,0c0-0.217,0-0.418,0-0.633
		c0.099-0.025,0.196-0.048,0.291-0.078c0.435-0.133,0.535-0.297,0.377-0.705c-0.406-1.051-0.834-2.09-1.228-3.146
		c-0.097-0.25-0.267-0.211-0.44-0.211c-1.468-0.004-7.571,0.002-9.156-0.008c-0.232,0-0.396,0.036-0.485,0.286
		c-0.347,0.974-0.718,1.943-1.064,2.92c-0.244,0.689-0.167,0.808,0.559,0.951c0,0.188,0,0.386,0,0.611c-2.464,0-4.929,0-7.391,0
		c-0.121-0.4-0.062-0.666,0.383-0.814c0.206-0.067,0.424-0.284,0.51-0.485c0.46-1.097,7.34-19.1,7.369-19.186
		c0.282-0.832,0.281-0.832-0.581-1.075c0-0.162,0-0.327,0-0.542c0.138-0.007,0.276-0.019,0.414-0.019
		c3.013-0.001,6.025,0.001,9.037-0.005c0.248-0.002,0.343,0.08,0.436,0.317c0.829,2.091,7.317,18.128,8.236,20.354
		C85.384,22.725,85.666,23.064,86.209,23.102z M76.18,15.509c-1.343-3.262-2.67-6.493-4.037-9.821
		c-1.239,3.337-2.436,6.557-3.648,9.821C71.079,15.509,73.598,15.509,76.18,15.509z"/>
	<path fill="#80122F" d="M96.605,6.819c0,0.162,0,10.246,0,15.158c0,0.838,0.094,0.951,0.914,1.103
		c0.073,0.017,0.149,0.019,0.242,0.022c0,0.226,0,0.428,0,0.648c-2.867,0-5.717,0-8.59,0c0-0.225,0-0.426,0-0.648
		c0.098-0.008,0.172-0.01,0.248-0.024c0.717-0.138,0.831-0.275,0.831-1.015c0-4.887,0-15.023,0-15.272c-0.168,0-4.685,0.001-6.795,0
		c-0.756,0-0.756-0.003-0.942,0.735c-0.029,0.125-0.061,0.251-0.1,0.41c-0.164,0-0.336,0-0.545,0c0-2.074,0-4.164,0-6.287
		c7.715,0,15.436,0,23.193,0c0,2.083,0,4.17,0,6.289c-0.176,0-0.352,0-0.559,0c-0.062-0.249-0.107-0.515-0.193-0.766
		c-0.074-0.208-0.18-0.387-0.47-0.386c-2.345,0.01-4.692,0.005-7.034,0.006C96.755,6.792,96.707,6.804,96.605,6.819z"/>
	<path fill="#80122F" d="M115.871,23.751c-2.989,0-5.864,0-8.766,0c0-0.211,0-0.41,0-0.612c0.021-0.017,0.041-0.037,0.062-0.041
		c0.993-0.185,1.103-0.146,1.097-1.236c-0.016-6.233-0.009-12.468-0.009-18.702c0-0.663-0.017-0.687-0.688-0.856
		c-0.15-0.036-0.299-0.075-0.465-0.117c0-0.165,0-0.332,0-0.535c2.879,0,5.76,0,8.666,0c0,0.179,0,0.345,0,0.534
		c-0.182,0.041-0.367,0.081-0.552,0.125c-0.479,0.116-0.606,0.276-0.606,0.76c-0.004,1.035,0.01,13.635-0.017,18.903
		c0,0.649,0.231,1.096,0.763,1.426C115.496,23.482,115.631,23.587,115.871,23.751z"/>
</g>
</svg>
